<?xml version="1.0" encoding="UTF-8"?> <svg xmlns="http://www.w3.org/2000/svg" id="NATS-color" viewBox="0 0 400 245"><defs><style>.cls-1{fill:none}.cls-2{clip-path:url(#clip-path)}.cls-3{fill:#9c9c9d}.cls-4{fill:#e75225}</style><clipPath id="clip-path"><path class="cls-1" d="M-138-296.888h672.186V573H-138z"></path></clipPath></defs><title>prometheus</title><g class="cls-2"><path class="cls-3" d="M69.104 218.055v13.791h-2.468V197.61h8.83q6.026 0 9.085 2.638a9.39 9.39 0 0 1 3.062 7.523 10.089 10.089 0 0 1-.836 4.138 9.197 9.197 0 0 1-2.406 3.254 11.25 11.25 0 0 1-3.824 2.129 15.739 15.739 0 0 1-5.08.763zm0-1.985h6.363a12.187 12.187 0 0 0 4.065-.629 8.966 8.966 0 0 0 3.036-1.74 7.585 7.585 0 0 0 1.912-2.627 8.125 8.125 0 0 0 .664-3.303 7.642 7.642 0 0 0-2.432-6.072q-2.431-2.129-7.245-2.129h-6.363zM95.838 231.846v-24.074h1.21a.673.673 0 0 1 .799.751l.192 5.08a11.44 11.44 0 0 1 3.098-4.586 7.077 7.077 0 0 1 4.766-1.657 8.238 8.238 0 0 1 2.008.23 7.754 7.754 0 0 1 1.742.665l-.315 1.598a.435.435 0 0 1-.484.387 1.3 1.3 0 0 1-.41-.097 13.372 13.372 0 0 0-.666-.218 7.955 7.955 0 0 0-.98-.217 8.126 8.126 0 0 0-1.331-.098 6.199 6.199 0 0 0-4.488 1.694 12.109 12.109 0 0 0-2.843 4.888v15.654zM126.735 207.385a11.614 11.614 0 0 1 4.634.882 9.443 9.443 0 0 1 3.446 2.505 11.115 11.115 0 0 1 2.142 3.907 18.092 18.092 0 0 1 0 10.222 11.127 11.127 0 0 1-2.142 3.897 9.306 9.306 0 0 1-3.446 2.49 12.762 12.762 0 0 1-9.268 0 9.417 9.417 0 0 1-3.46-2.49 11.01 11.01 0 0 1-2.154-3.897 18.066 18.066 0 0 1 0-10.222 10.998 10.998 0 0 1 2.154-3.907 9.556 9.556 0 0 1 3.46-2.505 11.599 11.599 0 0 1 4.634-.882m0 22.962a8.945 8.945 0 0 0 3.761-.74 7.126 7.126 0 0 0 2.686-2.117 9.313 9.313 0 0 0 1.609-3.326 18.158 18.158 0 0 0 0-8.723 9.441 9.441 0 0 0-1.61-3.35 7.187 7.187 0 0 0-2.685-2.142 9.81 9.81 0 0 0-7.524 0 7.2 7.2 0 0 0-2.687 2.142 9.645 9.645 0 0 0-1.62 3.35 17.732 17.732 0 0 0 0 8.723 9.514 9.514 0 0 0 1.62 3.326 7.139 7.139 0 0 0 2.687 2.118 8.947 8.947 0 0 0 3.763.739M145.678 231.846v-24.074h1.258a.655.655 0 0 1 .726.605l.217 3.484a15.27 15.27 0 0 1 1.501-1.816 10.025 10.025 0 0 1 1.706-1.414 7.889 7.889 0 0 1 1.936-.92 7.075 7.075 0 0 1 2.164-.326 5.764 5.764 0 0 1 4.21 1.537 8.037 8.037 0 0 1 2.13 4.27 8.347 8.347 0 0 1 1.219-2.59 7.652 7.652 0 0 1 1.799-1.801 7.476 7.476 0 0 1 2.212-1.066 8.658 8.658 0 0 1 2.452-.35 8.286 8.286 0 0 1 3.211.593 6.433 6.433 0 0 1 2.43 1.753 8.002 8.002 0 0 1 1.534 2.856 12.95 12.95 0 0 1 .53 3.87v15.39h-2.298v-15.39a8.28 8.28 0 0 0-1.525-5.383 5.317 5.317 0 0 0-4.354-1.851 6.426 6.426 0 0 0-2.408.46 5.872 5.872 0 0 0-2.031 1.366 6.608 6.608 0 0 0-1.405 2.264 8.734 8.734 0 0 0-.518 3.144v15.39h-2.3v-15.39a8.811 8.811 0 0 0-1.403-5.37 4.805 4.805 0 0 0-4.09-1.864 6.179 6.179 0 0 0-3.628 1.174 11.134 11.134 0 0 0-2.976 3.254v18.195zM195.18 207.385a9.91 9.91 0 0 1 3.761.7 8.445 8.445 0 0 1 3 2.047 9.41 9.41 0 0 1 1.984 3.3 13.096 13.096 0 0 1 .714 4.501 1.2 1.2 0 0 1-.157.726.593.593 0 0 1-.494.195h-17.374v.459a16.24 16.24 0 0 0 .63 4.766 9.72 9.72 0 0 0 1.792 3.449 7.364 7.364 0 0 0 2.805 2.092 9.272 9.272 0 0 0 3.678.702 11.076 11.076 0 0 0 3.146-.399 11.687 11.687 0 0 0 3.675-1.791 1.635 1.635 0 0 1 .775-.4.559.559 0 0 1 .485.244l.628.774a6.584 6.584 0 0 1-1.538 1.354 11.014 11.014 0 0 1-2.126 1.077 15.579 15.579 0 0 1-2.519.714 13.88 13.88 0 0 1-2.697.264 11.478 11.478 0 0 1-4.5-.858 9.574 9.574 0 0 1-3.486-2.503 11.405 11.405 0 0 1-2.25-4.028 17.212 17.212 0 0 1-.796-5.457 14.85 14.85 0 0 1 .738-4.779 10.93 10.93 0 0 1 2.127-3.774 9.7 9.7 0 0 1 3.413-2.48 11.197 11.197 0 0 1 4.586-.895m.034 1.718a9.037 9.037 0 0 0-3.334.58 7.264 7.264 0 0 0-2.548 1.67 8.548 8.548 0 0 0-1.74 2.612 11.93 11.93 0 0 0-.88 3.413h15.847a10.631 10.631 0 0 0-.532-3.473 7.428 7.428 0 0 0-1.498-2.601 6.477 6.477 0 0 0-2.318-1.632 7.657 7.657 0 0 0-2.997-.57M218.307 232.232a5.134 5.134 0 0 1-3.798-1.354 5.705 5.705 0 0 1-1.353-4.186V210.24h-3.46a.645.645 0 0 1-.436-.145.511.511 0 0 1-.17-.412v-.896l4.115-.289.572-8.614a.682.682 0 0 1 .18-.387.55.55 0 0 1 .418-.17h1.078v9.195h7.574v1.718h-7.574v16.332a5.104 5.104 0 0 0 .255 1.705 3.212 3.212 0 0 0 .7 1.174 2.766 2.766 0 0 0 1.053.677 3.812 3.812 0 0 0 1.306.219 4.02 4.02 0 0 0 1.502-.255 5.99 5.99 0 0 0 1.086-.557 6.5 6.5 0 0 0 .75-.556.828.828 0 0 1 .463-.254.52.52 0 0 1 .384.24l.632 1.018a6.745 6.745 0 0 1-2.336 1.633 7.29 7.29 0 0 1-2.94.616M230.937 231.846v-35.204h2.298v15.242a13.583 13.583 0 0 1 3.812-3.277 9.518 9.518 0 0 1 4.803-1.222 9.033 9.033 0 0 1 3.495.63 6.4 6.4 0 0 1 2.503 1.813 7.976 7.976 0 0 1 1.5 2.856 12.921 12.921 0 0 1 .512 3.773v15.39h-2.3v-15.39a8.264 8.264 0 0 0-1.547-5.31 5.733 5.733 0 0 0-4.746-1.924 8.389 8.389 0 0 0-4.402 1.223 12.819 12.819 0 0 0-3.63 3.35v18.05zM268.126 207.385a9.913 9.913 0 0 1 3.762.7 8.431 8.431 0 0 1 2.998 2.047 9.412 9.412 0 0 1 1.985 3.3 13.123 13.123 0 0 1 .713 4.502 1.21 1.21 0 0 1-.156.726.596.596 0 0 1-.495.194H259.56v.46a16.203 16.203 0 0 0 .63 4.765 9.735 9.735 0 0 0 1.79 3.449 7.368 7.368 0 0 0 2.807 2.092 9.27 9.27 0 0 0 3.677.702 11.084 11.084 0 0 0 3.147-.399 11.662 11.662 0 0 0 3.674-1.791 1.644 1.644 0 0 1 .775-.4.56.56 0 0 1 .486.244l.627.774a6.555 6.555 0 0 1-1.537 1.354 10.963 10.963 0 0 1-2.127 1.077 15.566 15.566 0 0 1-2.518.714 13.88 13.88 0 0 1-2.697.264 11.474 11.474 0 0 1-4.5-.858 9.565 9.565 0 0 1-3.486-2.503 11.405 11.405 0 0 1-2.25-4.028 17.21 17.21 0 0 1-.797-5.457 14.85 14.85 0 0 1 .74-4.779 10.913 10.913 0 0 1 2.127-3.774 9.7 9.7 0 0 1 3.412-2.48 11.193 11.193 0 0 1 4.586-.895m.034 1.718a9.037 9.037 0 0 0-3.334.58 7.254 7.254 0 0 0-2.548 1.67 8.528 8.528 0 0 0-1.74 2.612 11.966 11.966 0 0 0-.882 3.413h15.848a10.603 10.603 0 0 0-.532-3.473 7.41 7.41 0 0 0-1.497-2.601 6.477 6.477 0 0 0-2.318-1.632 7.66 7.66 0 0 0-2.997-.57M286.44 207.772v15.388a8.211 8.211 0 0 0 1.554 5.31 5.715 5.715 0 0 0 4.734 1.925 8.54 8.54 0 0 0 4.395-1.198 12.755 12.755 0 0 0 3.664-3.327v-18.098h2.3v24.074h-1.269a.6.6 0 0 1-.693-.628l-.22-3.582a13.606 13.606 0 0 1-3.864 3.34 9.629 9.629 0 0 1-4.88 1.257 9.04 9.04 0 0 1-3.513-.63 6.43 6.43 0 0 1-2.496-1.814 8.054 8.054 0 0 1-1.502-2.854 12.93 12.93 0 0 1-.509-3.775v-15.388zM325.151 210.772a.561.561 0 0 1-.532.34 1.314 1.314 0 0 1-.69-.304 11.404 11.404 0 0 0-1.113-.676 8.831 8.831 0 0 0-1.693-.678 8.595 8.595 0 0 0-2.455-.303 7.225 7.225 0 0 0-2.385.374 5.906 5.906 0 0 0-1.838 1 4.584 4.584 0 0 0-1.187 1.46 3.813 3.813 0 0 0-.422 1.75 2.993 2.993 0 0 0 .578 1.883 5.034 5.034 0 0 0 1.526 1.28 11.765 11.765 0 0 0 2.142.916q1.198.386 2.456.773 1.255.388 2.454.86a9.185 9.185 0 0 1 2.141 1.174 5.55 5.55 0 0 1 1.526 1.715 4.901 4.901 0 0 1 .579 2.468 7.493 7.493 0 0 1-.567 2.929 6.646 6.646 0 0 1-1.645 2.347 7.876 7.876 0 0 1-2.65 1.573 10.275 10.275 0 0 1-3.581.58 10.81 10.81 0 0 1-4.38-.81 12.332 12.332 0 0 1-3.291-2.118l.559-.822a.943.943 0 0 1 .265-.291.747.747 0 0 1 .41-.097 1.336 1.336 0 0 1 .776.388 9.62 9.62 0 0 0 1.198.835 9.881 9.881 0 0 0 1.84.835 8.292 8.292 0 0 0 2.72.386 7.835 7.835 0 0 0 2.686-.424 5.567 5.567 0 0 0 1.936-1.149 4.79 4.79 0 0 0 1.172-1.705 5.398 5.398 0 0 0 .399-2.069 3.336 3.336 0 0 0-.579-2.008 4.987 4.987 0 0 0-1.526-1.355 10.59 10.59 0 0 0-2.141-.943q-1.196-.388-2.466-.775-1.272-.387-2.47-.847a8.887 8.887 0 0 1-2.141-1.16 5.587 5.587 0 0 1-1.522-1.707 4.914 4.914 0 0 1-.582-2.504 5.736 5.736 0 0 1 .556-2.468 6.269 6.269 0 0 1 1.585-2.08 7.811 7.811 0 0 1 2.503-1.429 9.765 9.765 0 0 1 3.317-.531 11.117 11.117 0 0 1 3.906.638 9.56 9.56 0 0 1 3.134 1.95z"></path><path class="cls-4" d="M196.6 8.935c45.572.01 82.977 36.944 82.92 81.876-.058 45.614-37.31 82.035-83.873 82.003a82.432 82.432 0 0 1-82.293-82.67c.03-44.653 37.514-81.219 83.247-81.209m-25.19 28.757c1.044 5.113.029 9.88-1.516 14.57-1.07 3.248-2.549 6.375-3.43 9.667-1.457 5.425-3.108 10.88-3.713 16.428-.87 7.976 2.283 15.002 7.678 21.99l-24.804-5.192a7.148 7.148 0 0 0 .084 1.323c2.35 6.867 6.488 12.651 11.125 18.104a3.525 3.525 0 0 0 2.436.875q37.097.067 74.196.01a3.42 3.42 0 0 0 2.261-.636 49.876 49.876 0 0 0 11.888-19.798l-26.258 5.113c1.731-3.375 3.71-6.343 4.846-9.604 3.887-11.154 2.276-21.937-3.305-32.108-4.478-8.163-8.608-16.288-6.374-26.125-4.729 4.643-6.545 10.553-7.699 16.644-1.135 6-1.803 12.087-2.683 18.174-.124-.183-.287-.32-.31-.477a18.37 18.37 0 0 1-.233-1.927 79.403 79.403 0 0 0-6.627-28.752c-2.433-5.4-5.116-10.922-2.609-17.365a14.516 14.516 0 0 0-4.331 3.038c-3.282 3.77-4.64 8.297-4.99 13.254a109.224 109.224 0 0 1-1.496 12.654 29.992 29.992 0 0 1-5.104 12.688c-1.196-8.593-1.328-17.09-9.033-22.548m63.769 85.294h-77.57v13.396h77.57zm-62.19 20.317c-.064 11.155 11.365 19.466 25.49 18.863 11.706-.5 22.065-9.656 21.176-18.863z"></path></g></svg> 